<svg width="20" height="20" viewBox="0 0 20 20" fill="none" xmlns="http://www.w3.org/2000/svg">
<g clip-path="url(#clip0_1_323)">
<path d="M4.16668 16.6667H15.8333V18.3333H4.16668V16.6667ZM10 15C8.2319 15 6.53621 14.2976 5.28596 13.0474C4.03572 11.7971 3.33334 10.1014 3.33334 8.33332C3.33334 6.56521 4.03572 4.86952 5.28596 3.61928C6.53621 2.36904 8.2319 1.66666 10 1.66666C11.7681 1.66666 13.4638 2.36904 14.7141 3.61928C15.9643 4.86952 16.6667 6.56521 16.6667 8.33332C16.6667 10.1014 15.9643 11.7971 14.7141 13.0474C13.4638 14.2976 11.7681 15 10 15Z" fill="#9B9B9B"/>
</g>
<defs>
<clipPath id="clip0_1_323">
<rect width="20" height="20" fill="white"/>
</clipPath>
</defs>
</svg>
