<svg width="20" height="20" viewBox="0 0 20 20" fill="none" xmlns="http://www.w3.org/2000/svg">
<g clip-path="url(#clip0_1_388)">
<path d="M1.66666 9.16665H18.3333V16.6666C18.3333 16.8877 18.2455 17.0996 18.0892 17.2559C17.933 17.4122 17.721 17.5 17.5 17.5H2.49999C2.27898 17.5 2.06701 17.4122 1.91073 17.2559C1.75445 17.0996 1.66666 16.8877 1.66666 16.6666V9.16665ZM14.1667 2.49998H17.5C17.721 2.49998 17.933 2.58778 18.0892 2.74406C18.2455 2.90034 18.3333 3.1123 18.3333 3.33331V7.49998H1.66666V3.33331C1.66666 3.1123 1.75445 2.90034 1.91073 2.74406C2.06701 2.58778 2.27898 2.49998 2.49999 2.49998H5.83332V0.833313H7.49999V2.49998H12.5V0.833313H14.1667V2.49998Z" fill="#9B9B9B"/>
</g>
<defs>
<clipPath id="clip0_1_388">
<rect width="20" height="20" fill="white"/>
</clipPath>
</defs>
</svg>
